<svg width="42" height="42" viewBox="0 0 42 42" fill="none" xmlns="http://www.w3.org/2000/svg">
<g clip-path="url(#clip0_0_109)">
<path d="M21 41.9999C15.0006 41.9999 9.27441 39.4249 5.28786 34.9334L10.6102 30.2124C13.2472 33.1822 17.0341 34.8875 21 34.8875C24.9659 34.8875 28.7115 33.2029 31.3439 30.2629L36.6433 35.0114C32.6636 39.4547 26.9603 42.0022 21 42.0022V41.9999Z" fill="#C6E643"/>
<path d="M42 24.5574H0V21C0 9.42131 9.42131 0 21 0C32.5787 0 42 9.42131 42 21V24.5574ZM7.57607 17.4426H34.4239C32.8495 11.503 27.4285 7.11475 21 7.11475C14.5715 7.11475 9.15049 11.503 7.57607 17.4426Z" fill="#C6E643"/>
</g>
<defs>
<clipPath id="clip0_0_109">
<rect width="42" height="42" fill="white"/>
</clipPath>
</defs>
</svg>
