<?xml version="1.0" encoding="utf-8"?><svg xml:space="preserve" viewBox="0 0 100 100" y="0" x="0" xmlns="http://www.w3.org/2000/svg" id="圖層_1" version="1.1" width="200px" height="200px" xmlns:xlink="http://www.w3.org/1999/xlink" style="width:100%;height:100%;background-size:initial;background-repeat:initial;background-position-y:initial;background-position-x:initial;background-origin:initial;background-image:initial;background-color:rgb(255, 255, 255);background-clip:initial;background-attachment:initial;animation-play-state:paused" ><g class="ldl-scale" style="transform-origin:50% 50%;transform:rotate(0deg) scale(0.8, 0.8);animation-play-state:paused" ><path d="M54.1 80.2c0 1.3 1.5 1.9 2.5 1.1l32.9-30.2c.3-.3.5-.7.5-1.1 0-.4-.2-.8-.5-1.1L56.6 18.7c-.9-.9-2.5-.2-2.5 1.1v18.1H35.3c-1.1 0-2.1.9-2.1 2.1v20.1c0 1.1.9 2.1 2.1 2.1h18.8v18z" id="XMLID_1_" style="animation-play-state:paused" ></path>
<g style="animation-play-state:paused" ><path fill="#353035" d="M24 82.3h17.4c2.7 0 4.9-2.2 4.9-4.9s-2.2-4.9-4.9-4.9H24c-2.3 0-4.3-1.9-4.3-4.3V31.6c0-2.3 1.9-4.3 4.3-4.3h17.4c2.7 0 4.9-3.7 4.9-6.4s-2.2-3.4-4.9-3.4H24c-7.7 0-14 6.3-14 14v36.7c0 7.9 6.3 14.1 14 14.1z" style="fill:rgb(53, 48, 53);animation-play-state:paused" ></path></g>
<metadata xmlns:d="https://loading.io/stock/" style="animation-play-state:paused" ><d:name style="animation-play-state:paused" >log out</d:name>


<d:tags style="animation-play-state:paused" >leave,sign off,sign out,part,unsubscribe,arrow,log out,web application</d:tags>


<d:license style="animation-play-state:paused" >by</d:license>


<d:slug style="animation-play-state:paused" >37uyl2</d:slug></metadata></g><!-- generated by https://loading.io/ --></svg>